<?xml version="1.0" encoding="UTF-8"?>
<svg width="158px" height="158px" viewBox="0 0 158 158" version="1.1" xmlns="http://www.w3.org/2000/svg" xmlns:xlink="http://www.w3.org/1999/xlink">
    <!-- Generator: Sketch 40 (33762) - http://www.bohemiancoding.com/sketch -->
    <title>Generic-Charm</title>
    <desc>Created with Sketch.</desc>
    <defs>
        <polygon id="path-1" points="85.8275755 2.522 0.000486058049 2.522 0.000486058049 88.39948 85.8275755 88.39948 85.8275755 2.522"></polygon>
        <polygon id="path-3" points="57.05128 2.522 1.40088 2.522 1.40088 40.71964 57.05128 40.71964 57.05128 2.522"></polygon>
    </defs>
    <g id="Juju-Icons" stroke="none" stroke-width="1" fill="none" fill-rule="evenodd">
        <g id="Generic-Charm">
            <g id="Base" fill="#E7E9ED">
                <rect id="Rectangle" x="0" y="0" width="158" height="158"></rect>
            </g>
            <g id="Group-3" transform="translate(34.800000, 33.578780)">
                <mask id="mask-2" fill="white">
                    <use xlink:href="#path-1"></use>
                </mask>
                <g id="Clip-2"></g>
                <path d="M85.65154,34.05688 C85.52934,30.17248 85.34474,26.28808 85.09774,22.39848 C84.46594,12.51068 75.84174,3.88908 65.95394,3.25728 C58.26054,2.76588 50.58014,2.52148 42.89454,2.52148 C38.59934,2.52148 34.30154,2.61768 30.00114,2.77108 C26.61334,2.89068 23.22554,3.04148 19.83254,3.25728 C18.12174,3.36648 16.45514,3.73048 14.85354,4.28428 C7.20694,6.92588 1.21394,14.22148 0.69134,22.39848 C0.54574,24.71508 0.46254,27.02908 0.35854,29.34308 C-0.13806,40.47888 -0.11726,51.60428 0.41574,62.74008 C0.50674,64.66928 0.56914,66.59328 0.69134,68.51988 C1.32314,78.40768 9.94474,87.03188 19.83254,87.66368 C27.52854,88.15508 35.20894,88.39948 42.89454,88.39948 C45.02654,88.39948 47.15854,88.33448 49.29314,88.29808 C54.84414,88.19928 60.39774,88.01728 65.95394,87.66108 C66.23994,87.64548 66.51814,87.59608 66.79894,87.56488 C76.32534,86.51188 84.48154,78.12428 85.09514,68.51988 C85.11854,68.16108 85.12634,67.80228 85.14714,67.44088 C85.82574,56.30248 86.00254,45.18488 85.65154,34.05688" id="Fill-1" fill="#5EA3E1" mask="url(#mask-2)"></path>
            </g>
            <path d="M49.65458,37.86254 C42.00538,40.50414 36.01498,47.80234 35.49238,55.97934 C35.34418,58.29334 35.26358,60.60734 35.15958,62.92134 C40.07098,62.83814 44.98498,62.79914 49.89638,62.86414 C49.58698,54.52854 49.51678,46.19554 49.65458,37.86254" id="Fill-4" fill="#1A7BD3"></path>
            <path d="M101.59816,121.1447 C111.12716,120.0917 119.28336,111.7041 119.89696,102.0997 C119.92036,101.7409 119.92556,101.3795 119.94896,101.0207 C113.70896,101.2131 107.47156,101.3119 101.23416,101.2599 C101.50196,107.8899 101.60076,114.5173 101.59816,121.1447" id="Fill-6" fill="#1A7BD3"></path>
            <g id="Group-10" transform="translate(63.400000, 33.578780)">
                <mask id="mask-4" fill="white">
                    <use xlink:href="#path-3"></use>
                </mask>
                <g id="Clip-9"></g>
                <path d="M7.61228,30.02324 C8.85768,30.09344 10.10308,30.15324 11.35108,30.23124 C19.04968,30.72524 26.17628,34.79944 31.00708,40.71964 C35.55708,36.93664 41.25888,34.53424 47.36368,34.27164 C50.59548,34.13384 53.82208,34.10524 57.05128,34.05584 C56.92908,30.17144 56.74448,26.28704 56.49748,22.40004 C55.86568,12.51224 47.24408,3.89064 37.35628,3.25884 C29.66028,2.76744 21.97988,2.52044 14.29688,2.52044 C9.99908,2.52044 5.70128,2.61664 1.40088,2.77004 C5.08508,7.34084 7.38088,13.03744 7.54468,19.13444 C7.64088,22.76404 7.64868,26.39364 7.61228,30.02324" id="Fill-8" fill="#515B78" mask="url(#mask-4)"></path>
            </g>
            <path d="M49.89612,62.8644 C56.93172,62.9554 63.96992,63.205 71.01332,63.6028 C71.04712,59.9732 71.04192,56.3436 70.94572,52.714 C70.78192,46.617 68.48352,40.9204 64.80192,36.3496 C61.41412,36.4718 58.02372,36.62 54.63332,36.8358 C52.92252,36.9476 51.25592,37.309 49.65432,37.8628 C49.51652,46.1958 49.58672,54.5288 49.89612,62.8644" id="Fill-11" fill="#263156"></path>
            <path d="M120.45154,67.63566 C117.22234,67.68506 113.99574,67.71106 110.76394,67.85146 C104.65914,68.11406 98.95734,70.51646 94.40734,74.29946 C97.96934,78.66486 100.28594,84.03126 100.64734,89.70966 C100.89434,93.56026 101.07894,97.41086 101.23494,101.25886 C107.47234,101.31346 113.70974,101.21206 119.94714,101.01966 C120.62574,89.88126 120.80254,78.76366 120.45154,67.63566" id="Fill-13" fill="#263156"></path>
            <path d="M83.96366,100.80126 C81.48066,100.68686 78.99506,100.55686 76.50946,100.40346 C69.52586,99.97446 63.03366,96.64646 58.27046,91.67006 C54.10786,94.43126 49.21466,96.11086 44.03286,96.25126 C41.09486,96.33186 38.15426,96.33706 35.21626,96.32146 C35.30726,98.24806 35.36966,100.17206 35.49186,102.09866 C36.12366,111.98646 44.74526,120.60806 54.63306,121.24246 C62.32906,121.73386 70.00946,121.97826 77.69246,121.97826 C79.82706,121.97826 81.95906,121.91326 84.09106,121.87686 C83.85186,114.84906 83.78686,107.82646 83.96366,100.80126" id="Fill-15" fill="#19A2FF"></path>
            <path d="M58.26942,91.67032 C53.80262,87.00332 50.85162,80.89072 50.44862,74.34392 C50.21202,70.51412 50.03782,66.68952 49.89742,62.86492 C44.98342,62.79992 40.07202,62.83632 35.16062,62.92212 C34.66142,74.05792 34.68222,85.18332 35.21522,96.31912 C38.15582,96.33732 41.09382,96.32952 44.03442,96.25152 C49.21622,96.11112 54.10942,94.43152 58.26942,91.67032" id="Fill-17" fill="#8CD1FF"></path>
            <path d="M83.96366,100.80126 C83.78686,107.82646 83.85186,114.84906 84.09106,121.87686 C89.64466,121.77806 95.19566,121.59606 100.75446,121.23986 C101.03786,121.22426 101.31606,121.17486 101.59686,121.14366 C101.60206,114.51626 101.50066,107.88886 101.23546,101.25886 C95.47906,101.20686 89.72266,101.06386 83.96366,100.80126" id="Fill-19" fill="#8CD1FF"></path>
            <path d="M74.75056,63.81106 C73.50516,63.73046 72.25976,63.67326 71.01176,63.60306 C63.96836,63.20526 56.93276,62.95566 49.89716,62.86466 C50.03756,66.68926 50.21176,70.51386 50.44836,74.34366 C50.85136,80.89046 53.80236,87.00566 58.26916,91.67006 C63.03496,96.64646 69.52456,99.97446 76.50816,100.40346 C78.99376,100.55686 81.47936,100.68686 83.96496,100.80126 C89.72396,101.06386 95.48036,101.20686 101.23416,101.25886 C101.07816,97.41086 100.89356,93.56026 100.64916,89.70966 C100.28516,84.03126 97.96856,78.66486 94.40656,74.29946 C89.57576,68.37926 82.44916,64.30246 74.75056,63.81106" id="Fill-21" fill="#5EA3E1"></path>
        </g>
    </g>
</svg>